<svg xmlns="http://www.w3.org/2000/svg" xmlns:xlink="http://www.w3.org/1999/xlink" data-name="Layer 1" width="658" height="642" style=""><rect id="backgroundrect" width="100%" height="100%" x="0" y="0" fill="none" stroke="none"/><g class="currentLayer" style=""><title>Layer 1</title><path d="M416.1402269081116,147.1656863595581 H241.63045690811157 a15.01828,15.01828 0 0 0 -15,15 v387.85 l-2,0.6100500000000003 l-42.81006,13.11 a8.00676,8.00676 0 0 1 -9.98974,-5.3100000000000005 L44.49032690811157,142.4756863595581 a8.00313,8.00313 0 0 1 5.31006,-9.99 l65.97022,-20.2 l191.25,-58.54 l65.96972,-20.2 a7.98927,7.98927 0 0 1 9.99024,5.3 l32.5498,106.32 z" fill="#2f3142" id="svg_1" class=""/><path d="M454.2203269081116,145.1656863595581 l-39.23,-128.14 a16.99368,16.99368 0 0 0 -21.23,-11.28 l-92.75,28.39 L109.7705969081116,92.68570635955811 l-92.75,28.4 a17.0152,17.0152 0 0 0 -11.28028,21.23 l134.08008,437.93 a17.02661,17.02661 0 0 0 16.26026,12.03 a16.78926,16.78926 0 0 0 4.9697200000000015,-0.7500000000000003 l63.58008,-19.46 l2,-0.6200000000000003 v-2.09 l-2,0.6100000000000003 l-64.16992,19.65 a15.01489,15.01489 0 0 1 -18.73,-9.95 l-134.06983,-437.94 a14.97935,14.97935 0 0 1 9.94971,-18.73 l92.75,-28.4 l191.24024,-58.54 l92.75,-28.4 a15.15551,15.15551 0 0 1 4.40966,-0.6600000000000005 a15.01461,15.01461 0 0 1 14.32032,10.61 l39.0498,127.56 l0.6201200000000003,2 h2.08008 z" fill="#fff" id="svg_2" class="" stroke-width="10" stroke="#ffffff" stroke-opacity="1"/><path d="M127.67511690811159,132.81266635955808 a9.0157,9.0157 0 0 1 -8.61133,-6.3667 l-12.88037,-42.07178 a8.99884,8.99884 0 0 1 5.9712,-11.24023 l175.939,-53.86377 a9.00867,9.00867 0 0 1 11.24072,5.9707 l12.88037,42.07227 a9.01029,9.01029 0 0 1 -5.9707,11.24072 L130.30451690811157,132.4176463595581 A8.975999999999999,8.975999999999999 0 0 1 127.67511690811159,132.81266635955808 z" fill="#339fcd" id="svg_3" class=""/><circle cx="195.14771509170532" cy="29.946513175964355" r="20" fill="#339fcd" id="svg_4" class=""/><circle cx="195.14771509170532" cy="29.946513175964355" r="12.664620399475098" fill="#fff" id="svg_5" class=""/><path d="M607.6306869081116,587.1656863595581 h-338 a8.50981,8.50981 0 0 1 -8.5,-8.5 v-405 a8.50951,8.50951 0 0 1 8.5,-8.5 h338 a8.50982,8.50982 0 0 1 8.5,8.5 v405 A8.51013,8.51013 0 0 1 607.6306869081116,587.1656863595581 z" fill="#2f3142" id="svg_6" class=""/><path d="M452.13045690811157,145.1656863595581 h-210.5 a17.02411,17.02411 0 0 0 -17,17 v407.8 l2,-0.6100000000000003 v-407.19 a15.01828,15.01828 0 0 1 15,-15 H452.7505769081116 zm183.5,0 h-394 a17.02411,17.02411 0 0 0 -17,17 v458 a17.0241,17.0241 0 0 0 17,17 h394 a17.0241,17.0241 0 0 0 17,-17 v-458 A17.02411,17.02411 0 0 0 635.6304569081116,145.1656863595581 zm15,475 a15.01828,15.01828 0 0 1 -15,15 h-394 a15.01828,15.01828 0 0 1 -15,-15 v-458 a15.01828,15.01828 0 0 1 15,-15 h394 a15.01828,15.01828 0 0 1 15,15 z" fill="#3f3d56" id="svg_7" class="" stroke-width="10" stroke="#ffffff" stroke-opacity="1"/><path d="M530.6306869081116,189.1656863595581 h-184 a9.01015,9.01015 0 0 1 -9,-9 v-44 a9.01016,9.01016 0 0 1 9,-9 h184 a9.01016,9.01016 0 0 1 9,9 v44 A9.01015,9.01015 0 0 1 530.6306869081116,189.1656863595581 z" fill="#339fcd" id="svg_8" class=""/><circle cx="438.6304726600647" cy="110.1656904220581" r="20" fill="#339fcd" id="svg_9" class=""/><circle cx="438.6304726600647" cy="110.1656904220581" r="12.181870460510254" fill="#fff" id="svg_10" class=""/></g></svg>