<svg xmlns="http://www.w3.org/2000/svg" width="484.412" height="464.777" viewBox="0 0 484.412 464.777">
  <g id="Group_1969" data-name="Group 1969" transform="translate(-0.015)">
    <g id="Group_1824" data-name="Group 1824" transform="translate(153.392 268.845)">
      <path id="Path_3751" data-name="Path 3751" d="M157.4,314.011H357.036a19.137,19.137,0,0,0,19.106-19.106h0A19.137,19.137,0,0,0,357.036,275.8H157.4Z" transform="translate(-157.361 -275.8)" fill="#00508e"/>
      <path id="Path_3752" data-name="Path 3752" d="M157.4,309.549h94.846a14.5,14.5,0,0,0,14.524-14.524h0A14.5,14.5,0,0,0,252.246,280.5H157.4v29.049Z" transform="translate(-157.361 -275.918)" fill="#fff"/>
      <g id="Group_1823" data-name="Group 1823" transform="translate(0 8.753)">
        <rect id="Rectangle_189" data-name="Rectangle 189" width="96.406" height="1.657" transform="translate(96.406 1.657) rotate(180)" fill="#c0e6e9"/>
        <rect id="Rectangle_190" data-name="Rectangle 190" width="96.406" height="1.657" transform="translate(96.406 8.042) rotate(180)" fill="#c0e6e9"/>
        <rect id="Rectangle_191" data-name="Rectangle 191" width="96.406" height="1.657" transform="translate(96.406 14.428) rotate(180)" fill="#c0e6e9"/>
        <rect id="Rectangle_192" data-name="Rectangle 192" width="96.406" height="1.657" transform="translate(96.406 20.716) rotate(180)" fill="#c0e6e9"/>
      </g>
    </g>
    <g id="Group_1826" data-name="Group 1826" transform="translate(160.45 151.774)">
      <path id="Path_3753" data-name="Path 3753" d="M286.838,257.467V169.444A13.729,13.729,0,0,0,273.093,155.7H178.344A13.729,13.729,0,0,0,164.6,169.444v88.023Z" transform="translate(-164.6 -155.7)" fill="#00508e"/>
      <path id="Path_3754" data-name="Path 3754" d="M188.86,257.561V169.83a10.442,10.442,0,0,0-10.43-10.43h0A10.442,10.442,0,0,0,168,169.83v87.731Z" transform="translate(-164.686 -155.793)" fill="#fff"/>
      <g id="Group_1825" data-name="Group 1825" transform="translate(6.347 12.962)">
        <rect id="Rectangle_193" data-name="Rectangle 193" width="88.803" height="1.17" transform="translate(1.17 0.006) rotate(90)" fill="#ededed"/>
        <rect id="Rectangle_194" data-name="Rectangle 194" width="88.803" height="1.17" transform="translate(5.753 0.004) rotate(90)" fill="#ededed"/>
        <rect id="Rectangle_195" data-name="Rectangle 195" width="88.803" height="1.17" transform="translate(10.337 0.002) rotate(90)" fill="#ededed"/>
        <rect id="Rectangle_196" data-name="Rectangle 196" width="88.803" height="1.17" transform="translate(14.921) rotate(90)" fill="#ededed"/>
      </g>
    </g>
    <g id="Group_1828" data-name="Group 1828" transform="translate(201.586 236.872)">
      <path id="Path_3755" data-name="Path 3755" d="M407.313,277.9H224.249A17.431,17.431,0,0,1,206.8,260.449h0A17.431,17.431,0,0,1,224.249,243H407.313Z" transform="translate(-206.8 -243)" fill="#bdbebd"/>
      <path id="Path_3756" data-name="Path 3756" d="M409.908,273.814H322.957A13.271,13.271,0,0,1,309.7,260.557h0A13.271,13.271,0,0,1,322.957,247.3h86.951Z" transform="translate(-209.395 -243.108)" fill="#fff"/>
      <g id="Group_1827" data-name="Group 1827" transform="translate(112.1 7.896)">
        <rect id="Rectangle_197" data-name="Rectangle 197" width="88.413" height="1.56" fill="#ededed"/>
        <rect id="Rectangle_198" data-name="Rectangle 198" width="88.413" height="1.56" transform="translate(0 5.849)" fill="#ededed"/>
        <rect id="Rectangle_199" data-name="Rectangle 199" width="88.413" height="1.56" transform="translate(0 11.697)" fill="#ededed"/>
        <rect id="Rectangle_200" data-name="Rectangle 200" width="88.413" height="1.56" transform="translate(0 17.546)" fill="#ededed"/>
      </g>
    </g>
    <g id="Group_1830" data-name="Group 1830" transform="translate(245.938 207.726)">
      <path id="Path_3757" data-name="Path 3757" d="M252.3,242.149H404.171A14.561,14.561,0,0,0,418.7,227.624h0A14.561,14.561,0,0,0,404.171,213.1H252.3Z" transform="translate(-252.3 -213.1)" fill="#f8d1a2"/>
      <path id="Path_3758" data-name="Path 3758" d="M252.3,238.83h72.231a11.066,11.066,0,0,0,11.015-11.015h0A11.066,11.066,0,0,0,324.531,216.8H252.3v22.03Z" transform="translate(-252.3 -213.193)" fill="#fff"/>
      <g id="Group_1829" data-name="Group 1829" transform="translate(0.053 6.654)">
        <rect id="Rectangle_201" data-name="Rectangle 201" width="73.401" height="1.267" transform="translate(73.401 1.267) rotate(180)" fill="#ededed"/>
        <rect id="Rectangle_202" data-name="Rectangle 202" width="73.401" height="1.267" transform="translate(73.401 6.17) rotate(180)" fill="#ededed"/>
        <rect id="Rectangle_203" data-name="Rectangle 203" width="73.401" height="1.267" transform="translate(73.401 10.976) rotate(180)" fill="#ededed"/>
        <rect id="Rectangle_204" data-name="Rectangle 204" width="73.401" height="1.267" transform="translate(73.401 15.782) rotate(180)" fill="#ededed"/>
      </g>
    </g>
    <g id="Group_1832" data-name="Group 1832" transform="translate(195.542 174.389)">
      <path id="Path_3759" data-name="Path 3759" d="M390.78,212.043H217.171A16.557,16.557,0,0,1,200.6,195.471h0A16.557,16.557,0,0,1,217.171,178.9H390.78Z" transform="translate(-200.6 -178.9)" fill="#4fc3f7"/>
      <path id="Path_3760" data-name="Path 3760" d="M393.239,208.149H310.675A12.605,12.605,0,0,1,298.1,195.575h0A12.605,12.605,0,0,1,310.675,183h82.467v25.149Z" transform="translate(-203.059 -179.003)" fill="#fff"/>
      <g id="Group_1831" data-name="Group 1831" transform="translate(106.349 7.603)">
        <rect id="Rectangle_205" data-name="Rectangle 205" width="83.831" height="1.462" fill="#ededed"/>
        <rect id="Rectangle_206" data-name="Rectangle 206" width="83.831" height="1.462" transform="translate(0 5.556)" fill="#ededed"/>
        <rect id="Rectangle_207" data-name="Rectangle 207" width="83.831" height="1.462" transform="translate(0 11.015)" fill="#ededed"/>
        <rect id="Rectangle_208" data-name="Rectangle 208" width="83.831" height="1.462" transform="translate(0 16.571)" fill="#ededed"/>
      </g>
    </g>
    <g id="Group_1857" data-name="Group 1857" transform="translate(67.05)">
      <path id="Path_3761" data-name="Path 3761" d="M139.082,63.277a24.046,24.046,0,0,0-20.86-23.785C99.6,36.958,95.607,50.6,92.2,62.01c-4.289,14.622-14.037,34.215-11.307,45.425,2.729,11.113,2.924,11.6,18.326,15.4,15.5,3.8,37.042,4.484,38.894-30.121C138.985,80.628,139.18,70.88,139.082,63.277Z" transform="translate(-69.078 -0.988)" fill="#23333b"/>
      <path id="Path_3762" data-name="Path 3762" d="M134.326,121.1c28.269,1.56,17.254,75.156,17.351,87.146,0,12.087-12.282,24.565-17.839,0-7.018-31.291-19.4-61.314-11.307-73.889S134.326,121.1,134.326,121.1" transform="translate(-70.073 -3.054)" fill="#376586"/>
      <g id="Group_1834" data-name="Group 1834" transform="translate(63.831 201.683)">
        <g id="Group_1833" data-name="Group 1833" transform="translate(9.195 63.361)">
          <path id="Path_3763" data-name="Path 3763" d="M151.791,275.214l-.585,14.524-5.751.487L143.7,271.9Z" transform="translate(-143.7 -271.9)" fill="#f7b685"/>
        </g>
        <path id="Path_3764" data-name="Path 3764" d="M147.556,206.9c-16.474.585-13.842,27.489-11.7,38.212,2.242,10.723,7.018,35.092,7.018,35.092l10.333-1.17s.682-56.245-.39-63.556C151.748,207.972,147.556,206.9,147.556,206.9Z" transform="translate(-134.267 -206.9)" fill="#376586"/>
      </g>
      <g id="Group_1836" data-name="Group 1836" transform="translate(18.633 120.093)">
        <path id="Path_3765" data-name="Path 3765" d="M114.531,123.2c-28.366.195-20.958,74.181-21.543,86.171-.585,12.087,11.99,25.442,17.741.877,8.481-35.677,22.42-60.242,14.914-73.206-7.506-12.867-11.113-13.842-11.113-13.842" transform="translate(-88.017 -123.2)" fill="#376586"/>
        <g id="Group_1835" data-name="Group 1835" transform="translate(0 80.517)">
          <path id="Path_3766" data-name="Path 3766" d="M91.047,274.252,89,288.679l5.654,1.462L99.625,272.4Z" transform="translate(-87.928 -207.479)" fill="#f7b685"/>
          <path id="Path_3767" data-name="Path 3767" d="M99.3,205.8c9.26,0,11.892,18.326,8.188,31.193-3.314,11.795-8.968,42.6-8.968,42.6L87.9,278.031s3.7-56.927,5.361-64.141S99.3,205.8,99.3,205.8Z" transform="translate(-87.9 -205.8)" fill="#376586"/>
        </g>
      </g>
      <path id="Path_3768" data-name="Path 3768" d="M152.552,111.887c5.459-1.072,5.751-7.6,4.094-18.716-1.755-11.113,3.509-22.323-1.755-32.753S134.129,51.256,135.3,63.83s7.311,36.847,11.015,43.475C149.92,113.837,152.552,111.887,152.552,111.887Z" transform="translate(-70.46 -1.347)" fill="#f7b685"/>
      <path id="Path_3769" data-name="Path 3769" d="M166.542,74.148C160.888,86.82,150.263,96.666,149,104.562c-1.267,7.8,4.679,8.676,7.993,6.726,3.314-2.047,15.694-28.171,17.449-41.818C176.094,55.822,166.542,74.148,166.542,74.148Z" transform="translate(-70.803 -1.624)" fill="#f7b685"/>
      <path id="Path_3770" data-name="Path 3770" d="M101.338,54.487c4.484-2.827,12.77-3.9,19.3-4.289,1.56-.1,3.022-.1,4.289-.1,5.459,0,18.131,2.145,22.907,4.484,4.874,2.437.682,4.484.682,9.943L146.275,127.6s-7.7,7.7-21.445,7.7c-1.56,0-3.119,0-4.679-.1a34.922,34.922,0,0,1-19.5-7.6l-.877-61.9C99.778,60.725,97.048,57.118,101.338,54.487Z" transform="translate(-69.544 -1.263)" fill="#bdbebd"/>
      <g id="Group_1837" data-name="Group 1837" transform="translate(64.682 51.661)">
        <path id="Path_3771" data-name="Path 3771" d="M155.961,59.726C158.2,64.21,158.3,72.4,158.008,77.077l-19.2,5.946c-1.267-6.044-3.119-14.817-3.607-19.2C134.029,51.245,150.7,49.3,155.961,59.726Z" transform="translate(-135.14 -52.998)" fill="#bdbebd"/>
      </g>
      <g id="Group_1841" data-name="Group 1841" transform="translate(92.25 41.252)">
        <path id="Path_3772" data-name="Path 3772" d="M173.051,53.764h0a1.213,1.213,0,0,1-1.755.585l-7.116-3.314a1.213,1.213,0,0,1-.585-1.755h0a1.213,1.213,0,0,1,1.755-.585l7.116,3.314A1.371,1.371,0,0,1,173.051,53.764Z" transform="translate(-163.421 -42.476)" fill="#f7b685"/>
        <path id="Path_3773" data-name="Path 3773" d="M172.013,52.787h0a1.355,1.355,0,0,1-1.852-.1l-5.069-5.946a1.355,1.355,0,0,1,.1-1.852h0a1.355,1.355,0,0,1,1.852.1l5.069,5.946A1.267,1.267,0,0,1,172.013,52.787Z" transform="translate(-163.455 -42.376)" fill="#f7b685"/>
        <g id="Group_1840" data-name="Group 1840" transform="translate(1.279)">
          <g id="Group_1839" data-name="Group 1839">
            <g id="Group_1838" data-name="Group 1838" transform="translate(0 10.726)">
              <path id="Path_3774" data-name="Path 3774" d="M172.3,67.727h0a3.041,3.041,0,0,1-4.581.682l-.292-.195a3.178,3.178,0,0,1-.877-3.022l.39-3.217a4.3,4.3,0,0,0-.877-3.217l-.78-1.267c-.877-1.365-.682-3.607.39-4.094h0a.967.967,0,0,1,1.267.487L172.3,64.9A2.685,2.685,0,0,1,172.3,67.727Z" transform="translate(-164.733 -53.323)" fill="#f7b685"/>
            </g>
            <path id="Path_3775" data-name="Path 3775" d="M175.086,67.645l.1-10.625a3.5,3.5,0,0,0-.195-1.072L170.407,42.69a.539.539,0,0,0-.78-.292h0a2.42,2.42,0,0,0-1.267,2.632L170.309,54a5.883,5.883,0,0,1-.195,3.412L168.652,61.5s-4.289,4.971.195,8.481c2.827,2.242,4.679.78,5.556-.292A4.258,4.258,0,0,0,175.086,67.645Z" transform="translate(-164.785 -42.319)" fill="#f7b685"/>
          </g>
        </g>
      </g>
      <g id="Group_1843" data-name="Group 1843" transform="translate(44.352)">
        <path id="Path_3776" data-name="Path 3776" d="M139.573,8c4.679,8.091-3.412,20.178-3.412,20.178L130.8,8.877Z" transform="translate(-114.701 -0.202)" fill="#23333b"/>
        <g id="Group_1842" data-name="Group 1842">
          <path id="Path_3777" data-name="Path 3777" d="M131.647,17.1,118,19.829V53.654h13.647Z" transform="translate(-114.378 -0.431)" fill="#f7b685"/>
          <path id="Path_3778" data-name="Path 3778" d="M121.388,5.741c10.235-5.264,15.012-.877,17.156,7.506,2.047,8.383,2.242,23.98-3.217,25.734s-14.817-1.462-16.669-10.04C116.612,20.363,115.637,8.665,121.388,5.741Z" transform="translate(-114.354 -0.087)" fill="#f7b685"/>
          <path id="Path_3779" data-name="Path 3779" d="M139.741,0c5.459,5.751,4,9.553-1.365,10.235-5.361.585-10.04,1.462-16.669-.487,3.8,5.849-2.924,18.033.975,19.788,3.8,1.755,8.773-3.509,16.084-2.242,4.484.78,3.119,15.207-1.852,15.791-5.069.585-16.669-1.56-17.644-6.141s2.729-15.109.39-18.228-1.755-2.729-1.657-.39c.195,2.339,0,12.965,0,12.965s-4-11.307-3.7-18.228,2.924-12.867,9.943-11.99c6.921.877,7.8,3.119,11.99,2.145C140.229,2.339,139.741,0,139.741,0Z" transform="translate(-114.284)" fill="#23333b"/>
        </g>
      </g>
      <path id="Path_3780" data-name="Path 3780" d="M112.1,51.145c4.679-.78,9.65-2.145,13.257-2.145,3.412,0,9.845,1.95,15.207,3.217-.877,5.849-6.921,10.333-14.134,10.333C118.631,62.549,112.295,57.481,112.1,51.145Z" transform="translate(-69.877 -1.236)" fill="#f7b685"/>
      <g id="Group_1846" data-name="Group 1846" transform="translate(0 52.234)">
        <g id="Group_1844" data-name="Group 1844" transform="translate(0 0.315)">
          <path id="Path_3781" data-name="Path 3781" d="M70.262,100.1c4.192,3.607,9.553-.1,17.254-8.286S107.3,80.8,112.275,70.277s-5.556-22.03-14.719-13.257C88.3,65.7,72.894,85.386,69.969,92.307,67.142,99.325,70.262,100.1,70.262,100.1Z" transform="translate(-68.785 -53.909)" fill="#f7b685"/>
          <path id="Path_3782" data-name="Path 3782" d="M100.975,134.562c-7.8-11.4-15.986-32.655-22.03-37.822s-9.845-.585-9.845,3.314,15.207,26.417,25.832,35.092C105.654,143.725,100.975,134.562,100.975,134.562Z" transform="translate(-68.792 -54.931)" fill="#f7b685"/>
        </g>
        <g id="Group_1845" data-name="Group 1845" transform="translate(16.684)">
          <path id="Path_3783" data-name="Path 3783" d="M97.89,56.719c9.455-8.871,20.178,2.827,15.109,13.549-3.217,6.823-8.383,10.625-14.524,14.524L85.9,68.026C89.9,63.25,94.576,59.741,97.89,56.719Z" transform="translate(-85.9 -53.586)" fill="#bdbebd"/>
        </g>
        <path id="Path_3784" data-name="Path 3784" d="M97.542,134.8c2.339-.78,5.264.975,5.459,4.289s-3.509,10.918-5.654,11.6S94.033,135.965,97.542,134.8Z" transform="translate(-69.453 -55.629)" fill="#f7b685"/>
      </g>
      <g id="Group_1849" data-name="Group 1849" transform="translate(11.518 280.543)">
        <g id="Group_1848" data-name="Group 1848">
          <g id="Group_1847" data-name="Group 1847">
            <path id="Path_3785" data-name="Path 3785" d="M96,287.8H87.423L80.6,296.671l16.279.1Z" transform="translate(-80.6 -287.8)" fill="blue"/>
          </g>
        </g>
        <rect id="Rectangle_209" data-name="Rectangle 209" width="16.279" height="1.95" transform="translate(16.365 10.468) rotate(180)" fill="#d4d4d4"/>
        <path id="Path_3786" data-name="Path 3786" d="M94.054,289.282l-5.654-.1.39-.585,5.459.292Z" transform="translate(-80.797 -287.82)" fill="#d4d4d4"/>
        <path id="Path_3787" data-name="Path 3787" d="M93.451,292.082l-5.751-.1.487-.585,5.459.195Z" transform="translate(-80.779 -287.891)" fill="#d4d4d4"/>
        <path id="Path_3788" data-name="Path 3788" d="M88.5,290.585l5.751-.1L93.761,290,88.4,290.2Z" transform="translate(-80.797 -287.855)" fill="#d4d4d4"/>
        <path id="Path_3789" data-name="Path 3789" d="M96.979,296.409c0-2.047-1.755-3.607-7.213-3.509-5.556.1-9.065,1.072-9.065,3.509,0,2.534,8.578.975,8.578.975Z" transform="translate(-80.603 -287.928)" fill="#d4d4d4"/>
      </g>
      <g id="Group_1852" data-name="Group 1852" transform="translate(71.759 280.543)">
        <g id="Group_1851" data-name="Group 1851">
          <g id="Group_1850" data-name="Group 1850">
            <path id="Path_3790" data-name="Path 3790" d="M143.375,287.8h8.578l6.823,8.871-16.376.1Z" transform="translate(-142.4 -287.8)" fill="#376586"/>
          </g>
        </g>
        <rect id="Rectangle_210" data-name="Rectangle 210" width="16.279" height="1.95" transform="translate(0 8.481)" fill="#d4d4d4"/>
        <path id="Path_3791" data-name="Path 3791" d="M145.595,289.282l5.654-.1-.487-.585-5.361.292Z" transform="translate(-142.476 -287.82)" fill="#d4d4d4"/>
        <path id="Path_3792" data-name="Path 3792" d="M146.195,292.082l5.654-.1-.39-.585-5.459.195Z" transform="translate(-142.491 -287.891)" fill="#d4d4d4"/>
        <path id="Path_3793" data-name="Path 3793" d="M151.151,290.585l-5.751-.1.487-.487,5.361.195Z" transform="translate(-142.476 -287.855)" fill="#d4d4d4"/>
        <path id="Path_3794" data-name="Path 3794" d="M142.4,296.409c0-2.047,1.755-3.607,7.213-3.509,5.556.1,9.065,1.072,9.065,3.509,0,2.534-8.578.975-8.578.975Z" transform="translate(-142.4 -287.928)" fill="#d4d4d4"/>
      </g>
      <path id="Path_3795" data-name="Path 3795" d="M155.7,269.7l-.487,11.4-12.965.585s-2.339-9.358-1.755-9.455C140.887,272.039,155.7,269.7,155.7,269.7Z" transform="translate(-70.591 -6.801)" fill="#40769d"/>
      <path id="Path_3796" data-name="Path 3796" d="M102.2,270.58l-3.217,11.113L86.7,280.035l.975-10.235Z" transform="translate(-69.236 -6.803)" fill="#40769d"/>
      <g id="Group_1854" data-name="Group 1854" transform="translate(24.092 48.154)">
        <g id="Group_1853" data-name="Group 1853">
          <path id="Path_3797" data-name="Path 3797" d="M97.984,119.779a110.547,110.547,0,0,0,16.376-27.1c8.091-19.3,9.358-32.363-.682-43.28l-5.751,2.437c20.568,22.517-12.575,62.191-14.427,64.336Z" transform="translate(-93.5 -49.4)" fill="#23333b"/>
        </g>
      </g>
      <g id="Group_1856" data-name="Group 1856" transform="translate(35.684 47.638)">
        <g id="Group_1855" data-name="Group 1855">
          <path id="Path_3798" data-name="Path 3798" d="M106.375,51.044a1.427,1.427,0,0,0-.682,2.242c6.434,8.383,7.311,20.958.877,36.164a5.7,5.7,0,0,0,3.119,7.506,5.628,5.628,0,0,0,7.506-3.022c6.434-15.5,7.213-32.07-.195-43.378a3.707,3.707,0,0,0-4.387-1.462Z" transform="translate(-105.392 -48.87)" fill="#23333b"/>
        </g>
      </g>
    </g>
    <g id="Group_1859" data-name="Group 1859" transform="translate(26.222 356.868)">
      <path id="Path_3799" data-name="Path 3799" d="M226.341,400.8H44.251A17.327,17.327,0,0,1,26.9,383.451h0A17.327,17.327,0,0,1,44.251,366.1h182.09Z" transform="translate(-26.9 -366.1)" fill="#00508e"/>
      <path id="Path_3800" data-name="Path 3800" d="M228.92,396.719H142.36a13.167,13.167,0,0,1-13.16-13.16h0a13.167,13.167,0,0,1,13.16-13.16H228.92Z" transform="translate(-29.48 -366.209)" fill="#fff"/>
      <g id="Group_1858" data-name="Group 1858" transform="translate(111.515 7.798)">
        <rect id="Rectangle_211" data-name="Rectangle 211" width="87.925" height="1.56" fill="#ededed"/>
        <rect id="Rectangle_212" data-name="Rectangle 212" width="87.925" height="1.56" transform="translate(0 5.849)" fill="#ededed"/>
        <rect id="Rectangle_213" data-name="Rectangle 213" width="87.925" height="1.56" transform="translate(0 11.6)" fill="#ededed"/>
        <rect id="Rectangle_214" data-name="Rectangle 214" width="87.925" height="1.56" transform="translate(0 17.449)" fill="#ededed"/>
      </g>
    </g>
    <g id="Group_1861" data-name="Group 1861" transform="translate(54.881 327.917)">
      <path id="Path_3801" data-name="Path 3801" d="M56.3,365.254H207.489a14.394,14.394,0,0,0,14.427-14.427h0A14.394,14.394,0,0,0,207.489,336.4H56.3Z" transform="translate(-56.3 -336.4)" fill="#4fc3f7"/>
      <path id="Path_3802" data-name="Path 3802" d="M56.3,361.835h71.842a10.9,10.9,0,0,0,10.918-10.918h0A10.9,10.9,0,0,0,128.142,340H56.3Z" transform="translate(-56.3 -336.491)" fill="#fff"/>
      <g id="Group_1860" data-name="Group 1860" transform="translate(0.09 6.578)">
        <rect id="Rectangle_215" data-name="Rectangle 215" width="73.011" height="1.267" transform="translate(73.011 1.267) rotate(180)" fill="#ededed"/>
        <rect id="Rectangle_216" data-name="Rectangle 216" width="73.011" height="1.267" transform="translate(73.011 6.024) rotate(180)" fill="#ededed"/>
        <rect id="Rectangle_217" data-name="Rectangle 217" width="73.011" height="1.267" transform="translate(73.011 10.879) rotate(180)" fill="#ededed"/>
        <rect id="Rectangle_218" data-name="Rectangle 218" width="73.011" height="1.267" transform="translate(73.011 15.733) rotate(180)" fill="#ededed"/>
      </g>
    </g>
    <g id="Group_1863" data-name="Group 1863" transform="translate(53.419 290.388)">
      <path id="Path_3803" data-name="Path 3803" d="M268.862,335.137H73.418A18.617,18.617,0,0,1,54.8,316.518h0A18.617,18.617,0,0,1,73.418,297.9H268.862Z" transform="translate(-54.8 -297.9)" fill="#bdbebd"/>
      <path id="Path_3804" data-name="Path 3804" d="M271.631,330.769h-92.9A14.145,14.145,0,0,1,164.6,316.634h0A14.145,14.145,0,0,1,178.734,302.5h92.9Z" transform="translate(-57.569 -298.016)" fill="#fff"/>
      <g id="Group_1862" data-name="Group 1862" transform="translate(119.703 8.481)">
        <rect id="Rectangle_219" data-name="Rectangle 219" width="94.359" height="1.657" fill="#ededed"/>
        <rect id="Rectangle_220" data-name="Rectangle 220" width="94.359" height="1.657" transform="translate(0 6.239)" fill="#ededed"/>
        <rect id="Rectangle_221" data-name="Rectangle 221" width="94.359" height="1.657" transform="translate(0 12.38)" fill="#ededed"/>
        <rect id="Rectangle_222" data-name="Rectangle 222" width="94.359" height="1.657" transform="translate(0 18.618)" fill="#ededed"/>
      </g>
    </g>
    <g id="Group_1865" data-name="Group 1865" transform="translate(113.758 253.151)">
      <path id="Path_3805" data-name="Path 3805" d="M116.7,296.937H275.785A18.617,18.617,0,0,0,294.4,278.318h0A18.617,18.617,0,0,0,275.785,259.7H116.7Z" transform="translate(-116.7 -259.7)" fill="#2699fb"/>
      <path id="Path_3806" data-name="Path 3806" d="M116.7,292.569h56.537a14.145,14.145,0,0,0,14.134-14.134h0A14.145,14.145,0,0,0,173.237,264.3H116.7Z" transform="translate(-116.7 -259.816)" fill="#fff"/>
      <g id="Group_1864" data-name="Group 1864" transform="translate(0 8.383)">
        <path id="Path_3807" data-name="Path 3807" d="M116.7,269.957h58V268.3h-58Z" transform="translate(-116.7 -268.3)" fill="#ededed"/>
        <path id="Path_3808" data-name="Path 3808" d="M116.7,276.357h58V274.7h-58Z" transform="translate(-116.7 -268.461)" fill="#ededed"/>
        <path id="Path_3809" data-name="Path 3809" d="M116.7,282.757h58V281.1h-58Z" transform="translate(-116.7 -268.623)" fill="#ededed"/>
        <path id="Path_3810" data-name="Path 3810" d="M116.7,289.057h58V287.4h-58Z" transform="translate(-116.7 -268.782)" fill="#ededed"/>
      </g>
    </g>
    <g id="Group_1867" data-name="Group 1867" transform="translate(250.91 141.636)">
      <path id="Path_3811" data-name="Path 3811" d="M412.585,177.858H273.679A16.308,16.308,0,0,1,257.4,161.579h0A16.308,16.308,0,0,1,273.679,145.3H412.585Z" transform="translate(-257.4 -145.3)" fill="#2699fb"/>
      <path id="Path_3812" data-name="Path 3812" d="M415,174.06H365.68a12.4,12.4,0,0,1-12.38-12.38h0a12.4,12.4,0,0,1,12.38-12.38H415Z" transform="translate(-259.818 -145.401)" fill="#fff"/>
      <g id="Group_1866" data-name="Group 1866" transform="translate(104.497 7.311)">
        <path id="Path_3813" data-name="Path 3813" d="M415.289,154.262H364.6V152.8h50.689Z" transform="translate(-364.6 -152.8)" fill="#ededed"/>
        <path id="Path_3814" data-name="Path 3814" d="M415.289,159.862H364.6V158.4h50.689Z" transform="translate(-364.6 -152.941)" fill="#ededed"/>
        <path id="Path_3815" data-name="Path 3815" d="M415.289,165.462H364.6V164h50.689Z" transform="translate(-364.6 -153.082)" fill="#ededed"/>
        <path id="Path_3816" data-name="Path 3816" d="M415.289,171.062H364.6V169.6h50.689Z" transform="translate(-364.6 -153.224)" fill="#ededed"/>
      </g>
    </g>
    <g id="Group_1869" data-name="Group 1869" transform="translate(49.311 391.668)">
      <path id="Path_3817" data-name="Path 3817" d="M50.6,436.5H232.69a17.327,17.327,0,0,0,17.351-17.351h0A17.327,17.327,0,0,0,232.69,401.8H50.6Z" transform="translate(-50.587 -401.8)" fill="#f8d1a2"/>
      <path id="Path_3818" data-name="Path 3818" d="M50.6,432.419h86.561a13.167,13.167,0,0,0,13.16-13.16h0a13.167,13.167,0,0,0-13.16-13.16H50.6Z" transform="translate(-50.587 -401.909)" fill="#fff"/>
      <g id="Group_1868" data-name="Group 1868" transform="translate(0 7.804)">
        <rect id="Rectangle_223" data-name="Rectangle 223" width="87.925" height="1.56" transform="translate(87.925 1.56) rotate(180)" fill="#ededed"/>
        <rect id="Rectangle_224" data-name="Rectangle 224" width="87.925" height="1.56" transform="translate(87.925 7.316) rotate(180)" fill="#ededed"/>
        <rect id="Rectangle_225" data-name="Rectangle 225" width="87.925" height="1.56" transform="translate(87.925 13.169) rotate(180)" fill="#ededed"/>
        <rect id="Rectangle_226" data-name="Rectangle 226" width="87.925" height="1.56" transform="translate(87.925 18.925) rotate(180)" fill="#ededed"/>
      </g>
    </g>
    <g id="Group_1871" data-name="Group 1871" transform="translate(183.747 306.667)">
      <path id="Path_3819" data-name="Path 3819" d="M332.086,434.3V330.781A16.2,16.2,0,0,0,315.9,314.6H204.681A16.2,16.2,0,0,0,188.5,330.781V434.206H332.086Z" transform="translate(-188.5 -314.6)" fill="#2699fb"/>
      <path id="Path_3820" data-name="Path 3820" d="M216.965,434.417V331.382A12.293,12.293,0,0,0,204.682,319.1h0A12.293,12.293,0,0,0,192.4,331.382V434.417h24.565Z" transform="translate(-188.598 -314.714)" fill="#fff"/>
      <g id="Group_1870" data-name="Group 1870" transform="translate(7.438 15.288)">
        <rect id="Rectangle_227" data-name="Rectangle 227" width="104.399" height="1.365" transform="translate(1.365 0.074) rotate(90)" fill="#ededed"/>
        <rect id="Rectangle_228" data-name="Rectangle 228" width="104.399" height="1.365" transform="translate(6.751 0.049) rotate(90)" fill="#ededed"/>
        <rect id="Rectangle_229" data-name="Rectangle 229" width="104.399" height="1.365" transform="translate(12.137 0.025) rotate(90)" fill="#ededed"/>
        <rect id="Rectangle_230" data-name="Rectangle 230" width="104.399" height="1.365" transform="translate(17.523) rotate(90)" fill="#ededed"/>
      </g>
    </g>
    <g id="Group_1873" data-name="Group 1873" transform="translate(244.086 356.868)">
      <path id="Path_3821" data-name="Path 3821" d="M449.938,400.8H267.751A17.327,17.327,0,0,1,250.4,383.451h0A17.327,17.327,0,0,1,267.751,366.1h182.09v34.7Z" transform="translate(-250.4 -366.1)" fill="#00508e"/>
      <path id="Path_3822" data-name="Path 3822" d="M452.52,396.719H365.96a13.167,13.167,0,0,1-13.16-13.16h0a13.167,13.167,0,0,1,13.16-13.16H452.52v26.319Z" transform="translate(-252.982 -366.209)" fill="#fff"/>
      <g id="Group_1872" data-name="Group 1872" transform="translate(111.515 7.798)">
        <rect id="Rectangle_231" data-name="Rectangle 231" width="87.925" height="1.56" fill="#ededed"/>
        <rect id="Rectangle_232" data-name="Rectangle 232" width="87.925" height="1.56" transform="translate(0 5.849)" fill="#ededed"/>
        <rect id="Rectangle_233" data-name="Rectangle 233" width="87.925" height="1.56" transform="translate(0 11.6)" fill="#ededed"/>
        <rect id="Rectangle_234" data-name="Rectangle 234" width="87.925" height="1.56" transform="translate(0 17.449)" fill="#ededed"/>
      </g>
    </g>
    <g id="Group_1875" data-name="Group 1875" transform="translate(296.042 327.917)">
      <path id="Path_3823" data-name="Path 3823" d="M303.7,365.254H454.889a14.394,14.394,0,0,0,14.427-14.427h0A14.394,14.394,0,0,0,454.889,336.4H303.7Z" transform="translate(-303.7 -336.4)" fill="#f4d0a4"/>
      <path id="Path_3824" data-name="Path 3824" d="M303.7,361.835h71.842a10.9,10.9,0,0,0,10.918-10.918h0A10.9,10.9,0,0,0,375.542,340H303.7Z" transform="translate(-303.7 -336.491)" fill="#fff"/>
      <g id="Group_1874" data-name="Group 1874" transform="translate(0.033 6.578)">
        <rect id="Rectangle_235" data-name="Rectangle 235" width="73.011" height="1.267" transform="translate(73.011 1.267) rotate(180)" fill="#ededed"/>
        <rect id="Rectangle_236" data-name="Rectangle 236" width="73.011" height="1.267" transform="translate(73.011 6.024) rotate(180)" fill="#ededed"/>
        <rect id="Rectangle_237" data-name="Rectangle 237" width="73.011" height="1.267" transform="translate(73.011 10.879) rotate(180)" fill="#ededed"/>
        <rect id="Rectangle_238" data-name="Rectangle 238" width="73.011" height="1.267" transform="translate(73.011 15.733) rotate(180)" fill="#ededed"/>
      </g>
    </g>
    <g id="Group_1877" data-name="Group 1877" transform="translate(284.247 294.677)">
      <path id="Path_3825" data-name="Path 3825" d="M480.805,335.54H308.074A16.59,16.59,0,0,1,291.6,318.92h0a16.59,16.59,0,0,1,16.474-16.62H480.805Z" transform="translate(-291.6 -302.3)" fill="#bdbebd"/>
      <path id="Path_3826" data-name="Path 3826" d="M483.254,331.676H401.177A12.557,12.557,0,0,1,388.7,319.088h0A12.557,12.557,0,0,1,401.177,306.5h82.077Z" transform="translate(-294.049 -302.37)" fill="#fff"/>
      <g id="Group_1876" data-name="Group 1876" transform="translate(105.764 7.572)">
        <rect id="Rectangle_239" data-name="Rectangle 239" width="83.441" height="1.475" fill="#ededed"/>
        <rect id="Rectangle_240" data-name="Rectangle 240" width="83.441" height="1.475" transform="translate(0 5.606)" fill="#ededed"/>
        <rect id="Rectangle_241" data-name="Rectangle 241" width="83.441" height="1.475" transform="translate(0 11.113)" fill="#ededed"/>
        <rect id="Rectangle_242" data-name="Rectangle 242" width="83.441" height="1.475" transform="translate(0 16.62)" fill="#ededed"/>
      </g>
    </g>
    <g id="Group_1879" data-name="Group 1879" transform="translate(267.189 391.668)">
      <path id="Path_3827" data-name="Path 3827" d="M274.1,436.5H456.287a17.327,17.327,0,0,0,17.351-17.351h0A17.327,17.327,0,0,0,456.287,401.8H274.1Z" transform="translate(-274.1 -401.8)" fill="#bdbebd"/>
      <path id="Path_3828" data-name="Path 3828" d="M274.1,432.419h86.561a13.167,13.167,0,0,0,13.16-13.16h0a13.167,13.167,0,0,0-13.16-13.16H274.1v26.319Z" transform="translate(-274.1 -401.909)" fill="#fff"/>
      <g id="Group_1878" data-name="Group 1878" transform="translate(0.082 7.804)">
        <rect id="Rectangle_243" data-name="Rectangle 243" width="87.925" height="1.56" transform="translate(87.925 1.56) rotate(180)" fill="#ededed"/>
        <rect id="Rectangle_244" data-name="Rectangle 244" width="87.925" height="1.56" transform="translate(87.925 7.316) rotate(180)" fill="#ededed"/>
        <rect id="Rectangle_245" data-name="Rectangle 245" width="87.925" height="1.56" transform="translate(87.925 13.169) rotate(180)" fill="#ededed"/>
        <rect id="Rectangle_246" data-name="Rectangle 246" width="87.925" height="1.56" transform="translate(87.925 18.925) rotate(180)" fill="#ededed"/>
      </g>
    </g>
    <g id="Group_1896" data-name="Group 1896" transform="translate(380.068 171.952)">
      <g id="Group_1894" data-name="Group 1894">
        <g id="Group_1880" data-name="Group 1880" transform="translate(33.684 42.862)">
          <path id="Path_3829" data-name="Path 3829" d="M427.228,237.458a7.585,7.585,0,0,1-2.047-9.066c2.047-4.679,8.383-8.383,13.744-7.993a7.925,7.925,0,0,1,7.506,6.044l-4.387,1.267a3.367,3.367,0,0,0-3.412-2.729c-3.412-.195-8.091,2.437-9.358,5.361a3.307,3.307,0,0,0,1.072,4Z" transform="translate(-424.456 -220.371)" fill="#213442"/>
        </g>
        <path id="Path_3830" data-name="Path 3830" d="M453.744,275.951c-7.213,23-22.225,38.7-33.533,35.19s-14.524-25.052-7.311-47.959,15.791-38.6,27.1-34.995C451.307,231.7,460.957,253.044,453.744,275.951Z" transform="translate(-390.383 -177.693)" fill="#213442"/>
        <path id="Path_3831" data-name="Path 3831" d="M432.5,301.1c-27.976,1.56-17.059,74.279-17.156,86.268,0,11.892,8.286,23.1,17.644,0s19.2-60.632,11.21-73.011c-8.091-12.477-11.7-13.257-11.7-13.257" transform="translate(-390.491 -179.544)" fill="#2c4659"/>
        <g id="Group_1882" data-name="Group 1882" transform="translate(18.813 204.217)">
          <g id="Group_1881" data-name="Group 1881" transform="translate(0 62.679)">
            <path id="Path_3832" data-name="Path 3832" d="M415.926,453.514l.39,10.04-7.116,5.166,14.817.682-1.17-5.751,1.072-13.452Z" transform="translate(-409.2 -450.2)" fill="#f7b685"/>
          </g>
          <path id="Path_3833" data-name="Path 3833" d="M419.747,385.9c16.279.585,16.181,20.178,13.939,30.706-2.242,10.625-10.04,44.548-10.04,44.548l-9.553-.682s-.78-58.877.292-66.188C415.555,386.972,419.747,385.9,419.747,385.9Z" transform="translate(-409.316 -385.9)" fill="#2c4659"/>
        </g>
        <g id="Group_1884" data-name="Group 1884" transform="translate(47.865 122.92)">
          <path id="Path_3834" data-name="Path 3834" d="M453.914,302.5c-27.684,4.679-8.578,75.741-7.311,87.633,1.365,11.892,10.82,22.03,17.449-2.047s12.282-62.386,2.827-73.889c-9.358-11.307-12.965-11.7-12.965-11.7" transform="translate(-439.004 -302.5)" fill="#213442"/>
          <g id="Group_1883" data-name="Group 1883" transform="translate(8.35 81.079)">
            <path id="Path_3835" data-name="Path 3835" d="M455,453.819l.292,14.427,5.751.487,2.047-18.033Z" transform="translate(-447.757 -387.316)" fill="#f7b685"/>
            <path id="Path_3836" data-name="Path 3836" d="M452.181,385.7c16.279-.78,17.839,18.716,16.474,29.439s-6.239,45.23-6.239,45.23l-9.553.1s-5.751-58.585-5.264-65.993C448.087,387.162,452.181,385.7,452.181,385.7Z" transform="translate(-447.57 -385.677)" fill="#213442"/>
            <path id="Path_3837" data-name="Path 3837" d="M454.075,465.8l8.578.1,6.921,8.968-16.474.1Z" transform="translate(-447.709 -387.697)" fill="#2c4659"/>
          </g>
        </g>
        <path id="Path_3838" data-name="Path 3838" d="M429.854,292.223c-5.459.487-8.188-8.188-9.553-19.2-1.462-11.015-9.455-20.275-7.311-31.68s17.156-14.427,19.5-2.145,3.509,39.674,1.755,46.985C432.486,293.588,429.854,292.223,429.854,292.223Z" transform="translate(-390.473 -177.784)" fill="#0c5791"/>
        <path id="Path_3839" data-name="Path 3839" d="M410.391,254.034c2.437,3.022,1.365,7.6,4.874,11.015,8.481,8.286,18.131,16.669,20.47,21.738,3.217,7.213-2.242,9.553-5.946,8.481s-17.644-21.153-22.81-33.727c-2.534-6.239,1.462-9.748,3.022-10.04C411.463,251.109,410.391,254.034,410.391,254.034Z" transform="translate(-390.31 -178.293)" fill="#f7b685"/>
        <path id="Path_3840" data-name="Path 3840" d="M417.634,262.987c2.242,2.145,17.449,15.3,19.886,20.763,3.217,7.213-4,12.77-7.7,11.7-2.827-.78-23.395-26.319-22.42-32.85C412.663,266.3,415.49,260.842,417.634,262.987Z" transform="translate(-390.34 -178.57)" fill="#0c5791"/>
        <path id="Path_3841" data-name="Path 3841" d="M464.649,235.189c-4.387-2.729-12.575-3.9-19.106-4.192-1.56-.1-3.022-.1-4.289-.1-5.361,0-17.936,2.145-22.615,4.484-4.874,2.339-.682,4.484-.682,9.845l3.7,60.144a23.576,23.576,0,0,0,19.593,9.943c1.56,0,3.119,0,4.581-.1a35.926,35.926,0,0,0,18.716-6.336l1.462-62.386C466.111,241.33,468.84,237.821,464.649,235.189Z" transform="translate(-390.565 -177.774)" fill="#00508e"/>
        <path id="Path_3842" data-name="Path 3842" d="M454.571,231.847c-4.581-.78-9.455-2.047-13.062-2.047-3.412,0-9.748,1.95-15.109,3.119.877,5.751,6.823,10.235,14.037,10.235C448.138,243.155,454.376,238.086,454.571,231.847Z" transform="translate(-390.82 -177.747)" fill="#f7b685"/>
        <g id="Group_1885" data-name="Group 1885" transform="translate(20.131 51.631)">
          <path id="Path_3843" data-name="Path 3843" d="M422.881,230.764c-3.7,1.267-13.257,15.6-11.892,19.983-1.56,3.7,1.56,10.04,1.56,10.04l8.286,33.143-.585-8.773-3.217-23.395s-2.145-7.7-.975-9.845c3.7-.292,12.672-19.593,16.961-21.153C429.12,228.619,427.463,229.2,422.881,230.764Z" transform="translate(-410.552 -229.366)" fill="#213442"/>
        </g>
        <path id="Path_3844" data-name="Path 3844" d="M424.446,474.473l-1.267-8.578s-.487,2.34-4.387,2.34c-4.094,0-4.776-2.632-5.166-2.534s-17.059,4.874-17.059,4.874l-1.267,3.9,25.149,1.657Z" transform="translate(-390.036 -183.695)" fill="#2c4659"/>
        <rect id="Rectangle_247" data-name="Rectangle 247" width="34.41" height="2.047" transform="translate(0 290.778)" fill="#d4d4d4"/>
        <rect id="Rectangle_248" data-name="Rectangle 248" width="16.474" height="2.047" transform="translate(61.606 290.778)" fill="#d4d4d4"/>
        <path id="Path_3845" data-name="Path 3845" d="M389.9,474.6c0-4.484,6.434-3.9,6.434-3.9l1.462,3.9Z" transform="translate(-389.9 -183.821)" fill="#d4d4d4"/>
        <path id="Path_3846" data-name="Path 3846" d="M403,468.395l.585,1.95.975-.39-.78-1.755Z" transform="translate(-390.23 -183.758)" fill="#d4d4d4"/>
        <path id="Path_3847" data-name="Path 3847" d="M406,467.495l.585,1.95.975-.39-.78-1.755Z" transform="translate(-390.306 -183.736)" fill="#d4d4d4"/>
        <path id="Path_3848" data-name="Path 3848" d="M408.9,466.595l.585,1.95.975-.39-.78-1.755Z" transform="translate(-390.379 -183.713)" fill="#d4d4d4"/>
        <path id="Path_3849" data-name="Path 3849" d="M456.295,467.382l5.751-.1-.487-.585-5.459.195Z" transform="translate(-391.569 -183.72)" fill="#d4d4d4"/>
        <path id="Path_3850" data-name="Path 3850" d="M456.895,470.182l5.751-.1-.487-.585-5.459.195Z" transform="translate(-391.585 -183.791)" fill="#d4d4d4"/>
        <path id="Path_3851" data-name="Path 3851" d="M461.851,468.685l-5.751-.1.487-.487,5.459.195Z" transform="translate(-391.569 -183.756)" fill="#d4d4d4"/>
        <path id="Path_3852" data-name="Path 3852" d="M411.9,465.695l.487,1.95.975-.39-.78-1.755Z" transform="translate(-390.455 -183.69)" fill="#d4d4d4"/>
        <path id="Path_3853" data-name="Path 3853" d="M453.1,474.607c0-2.047,1.755-3.607,7.311-3.607,5.556.1,9.163,1.072,9.163,3.607s-8.676.975-8.676.975Z" transform="translate(-391.494 -183.829)" fill="#d4d4d4"/>
        <path id="Path_3854" data-name="Path 3854" d="M449.152,198.7,435.7,201.429v33.533h13.452Z" transform="translate(-391.055 -176.962)" fill="#f7b685"/>
        <g id="Group_1887" data-name="Group 1887" transform="translate(34.605 7.697)">
          <g id="Group_1886" data-name="Group 1886" transform="translate(6.491 32.172)">
            <path id="Path_3855" data-name="Path 3855" d="M439.9,238.843c0-.1-1.072-5.459-1.755-8.286a9.665,9.665,0,0,0-2.534-3.8c-2.047-2.145-4.289-4.581-3.314-9.455l.585.1c-.975,4.581,1.17,6.824,3.119,8.968a10.094,10.094,0,0,1,2.729,4.094c.682,2.924,1.755,8.286,1.755,8.383Z" transform="translate(-432.059 -217.3)" fill="#fff"/>
          </g>
          <path id="Path_3856" data-name="Path 3856" d="M452.3,201.359h0c1.657-2.339,2.827-2.924,2.437-8.091-.585-9.358-11.795-8.773-17.059-8.968-9.553-.39-15.5,29.341-10.43,33.24s18.716-.975,19.788-4.679a47.25,47.25,0,0,1,1.755-5.264,3.751,3.751,0,0,0,3.7-1.56A3.437,3.437,0,0,0,452.3,201.359Z" transform="translate(-425.4 -184.296)" fill="#f7b685"/>
        </g>
        <path id="Path_3857" data-name="Path 3857" d="M428.219,176.4c-6.823,2.145-7.9,6.239-6.434,9.845s3.509,7.993,13.452,7.408c9.943-.487,10.43,9.455,10.43,9.455h1.657s-.1-2.729,2.242-3.217,3.314,1.17,2.729,3.217c-.487,2.047-3.119,3.022-3.119,3.022l-.39,2.047s4.289.195,5.751-3.8-.1-5.654,1.365-7.993,4.387-4,3.022-9.455c-1.365-5.166-11.307-7.6-19.983-6.434C430.363,181.859,428.219,176.4,428.219,176.4Z" transform="translate(-390.69 -176.4)" fill="#78684c"/>
        <g id="Group_1888" data-name="Group 1888" transform="translate(45.97 28.074)">
          <path id="Path_3858" data-name="Path 3858" d="M461.371,312.134l-.585-.1c1.072-5.069-3.8-10.82-8.481-16.474-5.166-6.239-10.625-12.575-7.8-18.131l.1-.292c4.289-8.481,4.289-8.481-.39-12.38-.682-.487-1.365-1.072-2.145-1.755-6.726-5.654-5.654-9.65-2.729-21.543.292-.975.487-1.95.78-3.119v-.1l.1-.1c.1-.1,10.333-7.9,7.506-13.16-3.022-5.654-.682-12.867,2.339-19.788l.585.292c-2.924,6.823-5.264,13.842-2.339,19.2,2.924,5.459-6.531,13.062-7.6,13.939-.292,1.072-.487,2.047-.78,2.924-3.022,11.892-3.9,15.4,2.534,20.86.78.682,1.56,1.267,2.145,1.755,5.166,4.192,5.069,4.387.585,13.16l-.1.292c-2.632,5.166,2.437,11.113,7.7,17.449C457.569,300.924,462.443,306.772,461.371,312.134Z" transform="translate(-437.06 -205.2)" fill="#fff"/>
        </g>
        <circle id="Ellipse_123" data-name="Ellipse 123" cx="1.852" cy="1.852" r="1.852" transform="translate(57.415 24.662)" fill="#fff"/>
        <g id="Group_1889" data-name="Group 1889" transform="translate(43.321 115.162)">
          <path id="Path_3859" data-name="Path 3859" d="M486.16,339.049l-48.154-7.116a4.283,4.283,0,0,1-3.607-4.874l4.289-28.854a4.283,4.283,0,0,1,4.874-3.607l48.154,7.116a4.283,4.283,0,0,1,3.607,4.874l-4.289,28.854A4.356,4.356,0,0,1,486.16,339.049Z" transform="translate(-434.342 -294.542)" fill="#d4d4d4"/>
          <path id="Path_3860" data-name="Path 3860" d="M471.221,315.54a5.418,5.418,0,1,1-4.582-6.141A5.472,5.472,0,0,1,471.221,315.54Z" transform="translate(-435 -294.915)" fill="#e3e3e3"/>
        </g>
        <g id="Group_1893" data-name="Group 1893" transform="translate(60.451 56.488)">
          <g id="Group_1890" data-name="Group 1890" transform="translate(1.155 87.765)">
            <path id="Path_3861" data-name="Path 3861" d="M464.018,324.4h0a3.067,3.067,0,0,1,2.437,4l-.1.292a2.835,2.835,0,0,1-2.437,1.95l-3.119.877a4.906,4.906,0,0,0-2.632,2.047l-.877,1.267c-.877,1.365-3.119,2.047-3.9,1.267h0a.942.942,0,0,1,0-1.365l7.993-9.26A2.985,2.985,0,0,1,464.018,324.4Z" transform="translate(-453.1 -324.385)" fill="#f7b685"/>
          </g>
          <g id="Group_1892" data-name="Group 1892">
            <path id="Path_3862" data-name="Path 3862" d="M465.451,322.9c-2.437-.1-6.434,10.43-5.654,13.549.78,3.217,9.163,1.95,11.307,1.267C474.614,336.644,469.058,323.095,465.451,322.9Z" transform="translate(-452.111 -236.583)" fill="#f7b685"/>
            <g id="Group_1891" data-name="Group 1891">
              <path id="Path_3863" data-name="Path 3863" d="M481.631,289.084c-5.166,2.047-8.871-3.217-13.452-13.355S453.265,259.061,452,247.558s12.282-18.813,18.131-7.7c5.751,11.113,13.744,34.507,14.232,42.013S481.631,289.084,481.631,289.084Z" transform="translate(-451.915 -234.35)" fill="#1268ac"/>
              <path id="Path_3864" data-name="Path 3864" d="M462.895,327.237c4.192-12.77,6.044-34.9,10.235-41.331,4.289-6.434,9.065-3.119,10.235.585,1.072,3.7-7.018,28.854-14.622,39.771C461.043,337.179,462.895,327.237,462.895,327.237Z" transform="translate(-452.187 -235.558)" fill="#f7b685"/>
              <path id="Path_3865" data-name="Path 3865" d="M464.1,319.9c1.17-5.264,4.874-29.633,8.481-35.092,4.289-6.531,10.333-2.729,11.4.975.877,2.924-7.408,30.706-9.845,35.19C471.8,325.457,462.928,325.164,464.1,319.9Z" transform="translate(-452.219 -235.533)" fill="#1268ac"/>
            </g>
          </g>
        </g>
      </g>
      <g id="Group_1895" data-name="Group 1895" transform="translate(16.014 64.185)">
        <path id="Path_3866" data-name="Path 3866" d="M406.4,254.678h0a2.982,2.982,0,0,0,4.289,1.852l.292-.195a3.05,3.05,0,0,0,1.657-2.632l.487-3.217a4.7,4.7,0,0,1,1.657-2.827l1.17-1.072c1.17-1.072,1.56-3.314.682-4.094h0a.942.942,0,0,0-1.365.1l-8.091,9.163A3.335,3.335,0,0,0,406.4,254.678Z" transform="translate(-406.328 -242.245)" fill="#f7b685"/>
      </g>
      <path id="Path_3867" data-name="Path 3867" d="M406.5,255.3c-.39-2.339,8.773-8.188,12.087-7.9s.585,9.065.195,11.307C418.2,262.411,407.182,258.9,406.5,255.3Z" transform="translate(-390.318 -178.19)" fill="#f7b685"/>
    </g>
    <g id="Group_1919" data-name="Group 1919" transform="translate(0.015 153.589)">
      <g id="Group_1918" data-name="Group 1918">
        <g id="Group_1899" data-name="Group 1899" transform="translate(0 264.983)">
          <g id="Group_1898" data-name="Group 1898" transform="translate(6.126)">
            <g id="Group_1897" data-name="Group 1897">
              <path id="Path_3868" data-name="Path 3868" d="M26.186,436.808l-10.04,8.871v9.26L6.3,442.755l5.654-2.534L22.286,429.4Z" transform="translate(-6.3 -429.4)" fill="#f7b685"/>
            </g>
          </g>
          <path id="Path_3869" data-name="Path 3869" d="M1.7,445.389,9.791,441.1s-1.657,1.852.78,5.166c2.534,3.509,5.264,2.437,5.361,2.827s6.629,17.546,6.629,17.546l-2.534,3.509L2.87,449.776Z" transform="translate(-0.058 -429.695)" fill="#354e5f"/>
          <rect id="Rectangle_249" data-name="Rectangle 249" width="36.359" height="2.145" transform="translate(21.667 46.138) rotate(-126.575)" fill="#d4d4d4"/>
          <path id="Path_3870" data-name="Path 3870" d="M23.869,475.193c3.8-2.827-.78-7.993-.78-7.993L18.8,468.467Z" transform="translate(-0.489 -430.353)" fill="#3e5565"/>
          <path id="Path_3871" data-name="Path 3871" d="M20.942,460.38l-1.95.682L18.7,459.99l1.95-.39Z" transform="translate(-0.486 -430.162)" fill="#d4d4d4"/>
          <path id="Path_3872" data-name="Path 3872" d="M19.842,457.28l-1.95.682L17.6,456.89l1.95-.39Z" transform="translate(-0.459 -430.083)" fill="#d4d4d4"/>
          <path id="Path_3873" data-name="Path 3873" d="M18.742,454.18l-1.95.78-.292-1.072,1.95-.487Z" transform="translate(-0.431 -430.005)" fill="#d4d4d4"/>
          <path id="Path_3874" data-name="Path 3874" d="M17.642,451.18l-1.95.682L15.4,450.79l1.95-.39Z" transform="translate(-0.403 -429.93)" fill="#d4d4d4"/>
        </g>
        <g id="Group_1902" data-name="Group 1902" transform="translate(40.128 283.211)">
          <g id="Group_1901" data-name="Group 1901" transform="translate(0.993)">
            <g id="Group_1900" data-name="Group 1900">
              <path id="Path_3875" data-name="Path 3875" d="M51.071,451.707l-.585,10.625,7.311,5.654-15.6.39,1.267-6.044L42.59,448.1Z" transform="translate(-42.2 -448.1)" fill="#f7b685"/>
            </g>
          </g>
          <path id="Path_3876" data-name="Path 3876" d="M41.2,473.665l1.462-9.065s.487,2.437,4.679,2.534c4.289.1,5.069-2.729,5.459-2.534.39.1,17.936,5.459,17.936,5.459l1.17,4.192-26.612,1.267Z" transform="translate(-41.182 -448.516)" fill="#354e5f"/>
          <rect id="Rectangle_250" data-name="Rectangle 250" width="36.359" height="2.145" transform="matrix(-1, -0.017, 0.017, -1, 36.356, 27.888)" fill="#d4d4d4"/>
          <path id="Path_3877" data-name="Path 3877" d="M78.283,474.389c.1-4.776-6.726-4.289-6.726-4.289L69.9,474.194Z" transform="translate(-41.905 -448.654)" fill="#3e5565"/>
          <path id="Path_3878" data-name="Path 3878" d="M64.757,467.792l-.682,1.95-.975-.487.78-1.755Z" transform="translate(-41.734 -448.589)" fill="#d4d4d4"/>
          <path id="Path_3879" data-name="Path 3879" d="M61.657,466.695l-.682,2.047L60,468.255l.78-1.755Z" transform="translate(-41.656 -448.564)" fill="#d4d4d4"/>
          <path id="Path_3880" data-name="Path 3880" d="M58.557,465.695l-.682,2.047-.975-.487.78-1.755Z" transform="translate(-41.578 -448.539)" fill="#d4d4d4"/>
          <path id="Path_3881" data-name="Path 3881" d="M55.457,464.695l-.682,1.95-.975-.39.877-1.755Z" transform="translate(-41.499 -448.514)" fill="#d4d4d4"/>
        </g>
        <g id="Group_1917" data-name="Group 1917" transform="translate(10.832)">
          <g id="Group_1916" data-name="Group 1916" transform="translate(0 2.981)">
            <g id="Group_1907" data-name="Group 1907" transform="translate(31.739 50.966)">
              <path id="Path_3882" data-name="Path 3882" d="M46.723,271.582c5.459,2.242,9.553-3.412,14.622-14.232,4.971-10.82,16.181-17.839,17.644-30.121,1.462-12.38-13.062-20.373-19.4-8.481S44.384,255.693,43.8,263.784C43.311,271.874,46.723,271.582,46.723,271.582Z" transform="translate(-43.69 -212.904)" fill="#f7b685"/>
              <path id="Path_3883" data-name="Path 3883" d="M94.1,285.717c-13.842-4.874-34.215-18.033-42.7-18.618-8.383-.682-8.871,5.654-6.434,9.065s29.633,13.16,44.255,13.842C103.941,290.688,94.1,285.717,94.1,285.717Z" transform="translate(-43.688 -214.27)" fill="#f7b685"/>
              <g id="Group_1903" data-name="Group 1903" transform="translate(8.785 0.027)">
                <path id="Path_3884" data-name="Path 3884" d="M79.214,227.23c-.585,5.264-3.022,9.553-5.946,13.549L52.7,234.833a144.284,144.284,0,0,1,7.116-15.986C66.152,206.857,80.676,214.85,79.214,227.23Z" transform="translate(-52.7 -212.932)" fill="#2699fb"/>
              </g>
              <path id="Path_3885" data-name="Path 3885" d="M98.5,297.779h0a1.31,1.31,0,0,1,.877-1.755l7.8-2.827a1.31,1.31,0,0,1,1.755.877h0a1.31,1.31,0,0,1-.877,1.755l-7.8,2.827A1.31,1.31,0,0,1,98.5,297.779Z" transform="translate(-45.068 -214.927)" fill="#f7b685"/>
              <path id="Path_3886" data-name="Path 3886" d="M100,297.767h0a1.332,1.332,0,0,1,1.462-1.267l8.286.682a1.387,1.387,0,0,1,1.267,1.462h0a1.332,1.332,0,0,1-1.462,1.267l-8.286-.682A1.332,1.332,0,0,1,100,297.767Z" transform="translate(-45.108 -215.012)" fill="#f7b685"/>
              <g id="Group_1906" data-name="Group 1906" transform="translate(40.62 67.293)">
                <g id="Group_1905" data-name="Group 1905">
                  <g id="Group_1904" data-name="Group 1904" transform="translate(2.87 0.636)">
                    <path id="Path_3887" data-name="Path 3887" d="M88.4,286.5h0a3.161,3.161,0,0,1,2.924-3.9h.39a3.227,3.227,0,0,1,2.924,1.56l2.145,2.729a5.326,5.326,0,0,0,3.022,1.755l1.56.39c1.657.39,3.217,2.242,2.729,3.412h0a1.086,1.086,0,0,1-1.365.585l-12.282-4.289A3.367,3.367,0,0,1,88.4,286.5Z" transform="translate(-88.303 -282.591)" fill="#f7b685"/>
                  </g>
                  <path id="Path_3888" data-name="Path 3888" d="M86.179,288.335l7.993,8.091a3.5,3.5,0,0,0,.975.682l13.355,6.629a.615.615,0,0,0,.877-.39h0a2.458,2.458,0,0,0-.975-2.924l-8.188-5.264a5.8,5.8,0,0,1-2.339-2.729l-1.95-4.192S95.439,281.219,89.4,282c-3.8.487-4.192,2.924-4,4.484A2.3,2.3,0,0,0,86.179,288.335Z" transform="translate(-85.359 -281.938)" fill="#f7b685"/>
                </g>
              </g>
            </g>
            <g id="Group_1908" data-name="Group 1908" transform="translate(1.338 214.387)">
              <path id="Path_3889" data-name="Path 3889" d="M76.153,385.668c-11.99-12.77-27.781,1.267-34.8,10.625S12.5,436.161,12.5,436.161l7.311,7.213S67.965,402.044,73.034,396C78.2,389.859,76.153,385.668,76.153,385.668Z" transform="translate(-12.5 -380.553)" fill="#2b3d4a"/>
            </g>
            <g id="Group_1909" data-name="Group 1909" transform="translate(39.932)">
              <path id="Path_3890" data-name="Path 3890" d="M78.3,179.987,63.483,179.5,55.1,214.592l14.134,3.314Z" transform="translate(-52.169 -161.096)" fill="#f7b685"/>
              <path id="Path_3891" data-name="Path 3891" d="M55.024,166.059c10.82-12.575,26.612-.682,29.049,8.871,2.339,9.553,2.534,27.2-3.7,29.243s-16.766-1.657-19.008-11.4C59.216,183.021,46.446,176,55.024,166.059Z" transform="translate(-52.093 -160.62)" fill="#f7b685"/>
            </g>
            <path id="Path_3892" data-name="Path 3892" d="M61.075,288.8c30.121,2.34,16.571,80.42,16.279,93.287S67.9,406.749,58.443,381.6s-19.2-65.8-10.235-78.86C57.176,289.482,61.075,288.8,61.075,288.8" transform="translate(-11.973 -163.852)" fill="#213442"/>
            <g id="Group_1911" data-name="Group 1911" transform="translate(19.989 126.312)">
              <path id="Path_3893" data-name="Path 3893" d="M51.1,290.2c29.731,5.069,9.26,81.589,7.8,94.359s-11.7,23.785-18.813-2.145c-7.213-25.929-13.16-67.26-3.119-79.542C47.2,290.59,51.1,290.2,51.1,290.2" transform="translate(-31.634 -290.2)" fill="#2b3d4a"/>
              <g id="Group_1910" data-name="Group 1910" transform="translate(3.356 87.217)">
                <path id="Path_3894" data-name="Path 3894" d="M53.23,379.7c-17.546-.877-19.2,20.178-17.741,31.68,1.365,11.6,6.726,48.739,6.726,48.739l10.333.1s6.141-63.068,5.654-71.062C57.617,381.259,53.23,379.7,53.23,379.7Z" transform="translate(-35.077 -379.673)" fill="#2b3d4a"/>
              </g>
            </g>
            <path id="Path_3895" data-name="Path 3895" d="M71.273,218.1c2.339,3.8,8.481,20.373,8.481,26.124l-7.116,49.129a17.725,17.725,0,0,1-14.817,8.091c-1.17,0-2.339-.1-3.412-.1a51.177,51.177,0,0,1-14.914-3.509L39.3,227.265C42.712,203.773,65.814,209.135,71.273,218.1Z" transform="translate(-11.838 -161.877)" fill="#2699fb"/>
            <path id="Path_3896" data-name="Path 3896" d="M54.1,210.581c7.506-2.534,14.232,1.852,17.546,6.239,2.534,3.314-1.267,7.018-6.044,6.044C59.461,221.6,54.977,217.4,54.1,210.581Z" transform="translate(-12.211 -161.861)" fill="#f7b685"/>
            <g id="Group_1915" data-name="Group 1915" transform="translate(0 51.375)">
              <g id="Group_1912" data-name="Group 1912" transform="translate(0 2.179)">
                <path id="Path_3897" data-name="Path 3897" d="M12.66,263.948c4.387,3.7,9.943-.195,17.936-8.676s19.4-12.867,24.565-23.882-4.581-21.445-14.134-12.38S15.487,248.547,12.465,255.76C9.346,263.071,12.66,263.948,12.66,263.948Z" transform="translate(-11.128 -215.559)" fill="#f7b685"/>
                <path id="Path_3898" data-name="Path 3898" d="M45.322,300.5c-8.286-12.185-16.961-34.7-23.395-40.259-6.434-5.459-10.528-.682-10.528,3.509s16.181,28.171,27.586,37.334C50.294,310.34,45.322,300.5,45.322,300.5Z" transform="translate(-11.135 -216.624)" fill="#f7b685"/>
              </g>
              <g id="Group_1914" data-name="Group 1914" transform="translate(10.598)">
                <g id="Group_1913" data-name="Group 1913">
                  <path id="Path_3899" data-name="Path 3899" d="M40.911,216.517c10.04-9.455,22.128,4,16.669,15.5-3.412,7.311-9.943,11.21-21.64,20.665L22,238.45C31.455,228.02,37.4,219.832,40.911,216.517Z" transform="translate(-22 -213.324)" fill="#2699fb"/>
                </g>
              </g>
              <path id="Path_3900" data-name="Path 3900" d="M41.738,300.8a4.739,4.739,0,0,1,5.849,4.582c.195,3.509-3.7,11.7-6.044,12.38S38.034,301.965,41.738,300.8Z" transform="translate(-11.84 -215.525)" fill="#f7b685"/>
            </g>
          </g>
          <path id="Path_3901" data-name="Path 3901" d="M67.938,170.7c6.921,1.95,4.484,7.7,4.484,7.7a22.279,22.279,0,0,0-1.657,7.018c0,.682-1.755.39-2.339.975-.682.78-1.365-6.726-5.166-5.166-3.9,1.56-.585,8.676-.585,8.676a15.263,15.263,0,0,1-1.95.682s-7.993-7.8-6.629-12.477C56.046,171.09,67.938,170.7,67.938,170.7Z" transform="translate(-12.207 -157.894)" fill="#61543d"/>
          <path id="Path_3902" data-name="Path 3902" d="M83.258,159.549a6.334,6.334,0,0,0-3.217,1.072,8.922,8.922,0,0,0-2.924,2.534,33.03,33.03,0,0,0,1.95-3.314,13.174,13.174,0,0,1-4.581,1.365s1.56-.877,2.827-1.657a28.255,28.255,0,0,1-4.484.487s1.462-.585,2.242-.975c-2.339-.682-5.459,1.072-5.459,1.072a14.8,14.8,0,0,1,2.145-2.047c-2.729.585-7.408,1.072-7.408,1.072a21.3,21.3,0,0,0,3.314-1.365c-4-.585-8.383-.292-12.575,3.607-9.163,8.383-1.072,17.644-1.072,17.644-1.852-6.434,25.539-4.874,29.146-6.823C88.035,169.686,85.4,161.6,83.258,159.549Z" transform="translate(-12.126 -157.562)" fill="#61543d"/>
        </g>
      </g>
      <path id="Path_3903" data-name="Path 3903" d="M14.117,432.1,10.9,436.974l9.845,8.773,5.556-4.874Z" transform="translate(-0.29 -164.485)" fill="#213442"/>
      <path id="Path_3904" data-name="Path 3904" d="M40,455.96l1.072,6.531L54.232,462l-.1-7.6Z" transform="translate(-1.024 -165.048)" fill="#2b3d4a"/>
    </g>
    <g id="Group_1921" data-name="Group 1921" transform="translate(139.687 404.243)">
      <path id="Path_3905" data-name="Path 3905" d="M380.465,456.031h-216.5A20.676,20.676,0,0,1,143.3,435.365h0A20.676,20.676,0,0,1,163.965,414.7h216.5Z" transform="translate(-143.3 -414.7)" fill="#0c5791"/>
      <path id="Path_3906" data-name="Path 3906" d="M383.534,451.188H280.694A15.684,15.684,0,0,1,265,435.494h0A15.684,15.684,0,0,1,280.694,419.8h102.84Z" transform="translate(-146.369 -414.829)" fill="#fff"/>
      <g id="Group_1920" data-name="Group 1920" transform="translate(132.571 9.358)">
        <rect id="Rectangle_251" data-name="Rectangle 251" width="104.594" height="1.852" fill="#ededed"/>
        <rect id="Rectangle_252" data-name="Rectangle 252" width="104.594" height="1.852" transform="translate(0 6.921)" fill="#ededed"/>
        <rect id="Rectangle_253" data-name="Rectangle 253" width="104.594" height="1.852" transform="translate(0 13.842)" fill="#ededed"/>
        <rect id="Rectangle_254" data-name="Rectangle 254" width="104.594" height="1.852" transform="translate(0 20.665)" fill="#ededed"/>
      </g>
    </g>
    <g id="Group_1936" data-name="Group 1936" transform="translate(176.515 251.914)">
      <path id="Path_3907" data-name="Path 3907" d="M297.2,411.506c-.39-3.217,3.509-3.9,3.509-3.9s13.355-2.924,16.961-3.412,9.943-.1,9.455,2.437c-.975,5.361-8.773,8.481-12.672,8.968s-13.842-.682-13.842-.682A3.77,3.77,0,0,1,297.2,411.506Z" transform="translate(-184.008 -262.102)" fill="#213442"/>
      <path id="Path_3908" data-name="Path 3908" d="M293.89,407.966l6.141.1s15.6-3.509,16.961.487c2.339,6.921-16.864,5.946-16.864,5.946L293.5,414.2Z" transform="translate(-183.915 -262.168)" fill="#d9a17e"/>
      <g id="Group_1935" data-name="Group 1935">
        <g id="Group_1924" data-name="Group 1924" transform="translate(46.44)">
          <path id="Path_3909" data-name="Path 3909" d="M249.951,268.359c-.292-3.509-6.434-8.871-12.38-2.437-3.217,3.509-2.242,12.282-.585,20.665,1.56,8.383-4.484,15.889-7.408,27.294s1.755,21.835,12.38,19.983c10.723-1.852,15.986-9.26,11.795-15.694-4.289-6.336-9.26-11.795-6.629-20.763s5.556-11.5,3.412-19.4C248.391,270.016,249.951,268.359,249.951,268.359Z" transform="translate(-228.722 -258.544)" fill="#262d2e"/>
          <g id="Group_1923" data-name="Group 1923" transform="translate(16.248)">
            <g id="Group_1922" data-name="Group 1922">
              <path id="Path_3910" data-name="Path 3910" d="M260.466,282.6l11.5,4.289-4.776,23.492L255.3,307.944Z" transform="translate(-245.64 -259.04)" fill="#f7b685"/>
              <path id="Path_3911" data-name="Path 3911" d="M254.129,282.776c0-.1.1-.1,0,0-1.657-1.95-2.729-2.437-2.729-7.116-.1-8.383,9.943-8.676,14.719-9.26,8.578-1.072,15.986,25.247,11.7,29.146s-16.864.487-18.034-2.729c-.682-1.852-4.387-4.679-5.361-5.751C253.155,285.7,253.057,283.75,254.129,282.776Z" transform="translate(-245.542 -258.631)" fill="#f7b685"/>
              <path id="Path_3912" data-name="Path 3912" d="M267.625,275.07c-8.091,3.9-7.408,9.553-7.408,9.553l-1.462.292s-.39-2.437-2.534-2.437-2.632,1.657-1.755,3.412c1.657,3.412,3.9,2.924,3.9,2.924l1.072,4.679s-4.679-2.827-6.726-6.044c-2.145-3.217-1.072-4.971-2.827-6.726s-4.679-2.632-4.484-7.7c.195-4.776,7.311-12.965,16.376-14.427C272.6,256.939,281.954,268.149,267.625,275.07Z" transform="translate(-245.391 -258.431)" fill="#262d2e"/>
            </g>
          </g>
          <path id="Path_3913" data-name="Path 3913" d="M245.582,272.134c-.487-1.56,1.17-5.751,4-6.239-3.9-1.267-5.849,4.289-4,6.239Z" transform="translate(-229.129 -258.614)" fill="#f7a60f"/>
        </g>
        <path id="Path_3914" data-name="Path 3914" d="M289.622,313.316s-4.971-7.408-26.222-7.116c-21.153.292-23.2,6.239-23.2,6.239s8.968,50.2,8.286,69.989c-.39,10.528,30.218,8.773,28.561,0C275.39,373.752,289.622,313.316,289.622,313.316Z" transform="translate(-182.571 -259.635)" fill="#fff"/>
        <path id="Path_3915" data-name="Path 3915" d="M263.542,305.7a97.03,97.03,0,0,0-13.842,1.852c.39,3.9,5.361,7.311,11.4,7.9,8.091.78,14.134-4.387,14.622-8.383A56.947,56.947,0,0,0,263.542,305.7Z" transform="translate(-182.811 -259.623)" fill="#f7b685"/>
        <g id="Group_1925" data-name="Group 1925" transform="translate(45.191 50.188)">
          <path id="Path_3916" data-name="Path 3916" d="M231.2,364.2c-5.069-1.267-4.192-6.726-2.145-17.156,2.145-10.43,1.95-21.055,7.408-30.608,5.459-9.65,14.914-8.578,13.16,3.217-1.657,11.795-9.26,29.048-12.282,40.453C235.492,367.12,231.2,364.2,231.2,364.2Z" transform="translate(-227.44 -309.918)" fill="#f7b685"/>
        </g>
        <g id="Group_1926" data-name="Group 1926" transform="translate(48.563 49.817)">
          <path id="Path_3917" data-name="Path 3917" d="M230.9,337.38c.975-6.921,1.462-15.694,5.069-22.03,5.459-9.65,16.571-6.823,14.914,5.069-.682,4.971-5.166,15.207-7.213,21.25Z" transform="translate(-230.9 -309.537)" fill="#fff"/>
        </g>
        <path id="Path_3918" data-name="Path 3918" d="M248.285,375.68a27.646,27.646,0,0,0,14.719,4,26.7,26.7,0,0,0,14.427-4.776s13.16,22.907,9.163,29.633c-4.094,6.726-44.45,12.965-49.519,4.971C232.006,401.317,248.285,375.68,248.285,375.68Z" transform="translate(-182.468 -261.368)" fill="#213442"/>
        <g id="Group_1928" data-name="Group 1928" transform="translate(96.282 50.947)">
          <g id="Group_1927" data-name="Group 1927">
            <path id="Path_3919" data-name="Path 3919" d="M302.254,362.783c-4.874,1.755-6.629-3.8-10.528-13.452s-9.748-17.351-10.528-28.171,6.726-12.965,11.795-2.339,11.892,30.316,12.087,37.334S302.254,362.783,302.254,362.783Z" transform="translate(-279.886 -310.725)" fill="#f7b685"/>
            <path id="Path_3920" data-name="Path 3920" d="M286.82,339.553c-3.217-5.849-6.434-11.6-6.921-18.618-.78-10.82,8.676-14.524,13.744-3.9a153.676,153.676,0,0,1,6.629,17.839C300.662,336.434,286.82,339.553,286.82,339.553Z" transform="translate(-279.853 -310.696)" fill="#fff"/>
            <path id="Path_3921" data-name="Path 3921" d="M284.9,399.267c1.852-13.16,5.751-34.312,10.04-40.356,4.289-6.141,8.773-2.827,9.748.682s-8.481,31.1-14.232,41.818C284.315,412.719,284.9,399.267,284.9,399.267Z" transform="translate(-279.98 -311.825)" fill="#f7b685"/>
          </g>
        </g>
        <g id="Group_1929" data-name="Group 1929" transform="translate(9.809 121.135)">
          <path id="Path_3922" data-name="Path 3922" d="M191.588,391.668c-5.264,15.6,37.529,19.3,55.66,21.153s50.1,2.924,50.1,2.924l.975-9.163c-24.077-1.755-31.778-14.329-55.075-19.106C219.857,382.7,196.072,378.119,191.588,391.668Z" transform="translate(-191.143 -382.699)" fill="#213442"/>
        </g>
        <g id="Group_1930" data-name="Group 1930" transform="translate(18.124 119.073)">
          <path id="Path_3923" data-name="Path 3923" d="M229.625,416.606c.39-3.217-3.509-3.9-3.509-3.9s-13.355-2.924-16.961-3.412-9.943-.1-9.455,2.437c.975,5.361,8.773,8.481,12.672,8.968s13.842-.682,13.842-.682A3.844,3.844,0,0,0,229.625,416.606Z" transform="translate(-199.673 -381.304)" fill="#213442"/>
          <path id="Path_3924" data-name="Path 3924" d="M233,413.066l-6.141.1s-15.6-3.509-16.961.487c-2.339,6.921,16.864,5.946,16.864,5.946l6.629-.292Z" transform="translate(-199.926 -381.37)" fill="#d9a17e"/>
          <path id="Path_3925" data-name="Path 3925" d="M327.358,388.593c5.654,14.719-33.435,21.445-50.2,24.662s-46.5,6.726-46.5,6.726l-1.56-8.773c28.561-3.9,28.464-16.181,49.811-22.615C300.357,382.159,321.9,374.361,327.358,388.593Z" transform="translate(-200.415 -380.584)" fill="#2c4659"/>
        </g>
        <path id="Path_3926" data-name="Path 3926" d="M190.4,377.556c11.99-6.531,30.511-16.376,38.017-17.059s7.311,2.145,6.044,5.556c-3.607,9.845-25.539,11.113-39.284,15.4C190.5,382.917,190.4,377.556,190.4,377.556Z" transform="translate(-181.315 -261.002)" fill="#f7b685"/>
        <g id="Group_1934" data-name="Group 1934" transform="translate(0 116.251)">
          <path id="Path_3927" data-name="Path 3927" d="M183.887,391.994h0a1.248,1.248,0,0,1,1.755.292l4.289,6.044a1.248,1.248,0,0,1-.292,1.755h0a1.248,1.248,0,0,1-1.755-.292l-4.289-6.044A1.343,1.343,0,0,1,183.887,391.994Z" transform="translate(-181.139 -378.044)" fill="#d9a17e"/>
          <path id="Path_3928" data-name="Path 3928" d="M184.374,393.3h0a1.292,1.292,0,0,1,1.462.975l1.462,7.213a1.292,1.292,0,0,1-.975,1.462h0a1.292,1.292,0,0,1-1.462-.975l-1.462-7.213A1.24,1.24,0,0,1,184.374,393.3Z" transform="translate(-181.139 -378.082)" fill="#d9a17e"/>
          <g id="Group_1933" data-name="Group 1933">
            <g id="Group_1932" data-name="Group 1932">
              <path id="Path_3929" data-name="Path 3929" d="M188.8,379.259l-4.971,8.773a4.075,4.075,0,0,0-.39.975L181.1,401.972c-.1.292.195.585.487.682h0a2.2,2.2,0,0,0,2.242-1.56l2.534-8.286a4.877,4.877,0,0,1,1.755-2.632l3.119-2.729s5.849-2.047,3.7-7.116c-1.365-3.119-3.509-2.827-4.776-2.339A2.875,2.875,0,0,0,188.8,379.259Z" transform="translate(-181.08 -377.689)" fill="#f7b685"/>
              <g id="Group_1931" data-name="Group 1931" transform="translate(7.802 2.571)">
                <path id="Path_3930" data-name="Path 3930" d="M191.147,380.691h0a2.865,2.865,0,0,1,4.094,1.56l.1.292a2.746,2.746,0,0,1-.682,2.827l-1.852,2.437a4.19,4.19,0,0,0-.78,3.022l.1,1.462c.1,1.462-1.17,3.314-2.242,3.119h0a.872.872,0,0,1-.78-.975l.682-11.5A2.588,2.588,0,0,1,191.147,380.691Z" transform="translate(-189.085 -380.326)" fill="#f7b685"/>
              </g>
            </g>
          </g>
        </g>
      </g>
    </g>
    <g id="Group_1967" data-name="Group 1967" transform="translate(217.28 2.402)">
      <path id="Path_3931" data-name="Path 3931" d="M321.61,8.191c-4.581,5.166-4.484,21.64-.585,33.63,3.9,12.185-2.729,18.911-2.729,18.911s11.7-12.185,26.027-9.845c8.871,1.462,2.339-26.612-4-42.4C337.4,1.172,325.314,4,321.61,8.191Z" transform="translate(-225.302 -2.502)" fill="#5c503a"/>
      <g id="Group_1937" data-name="Group 1937" transform="translate(0 172.474)">
        <path id="Path_3932" data-name="Path 3932" d="M256.375,179.4l8.091,1.17-11.99,12.185-.292,3.607L236.1,200.553l.195-3.607,9.358-6.726Z" transform="translate(-223.233 -179.4)" fill="#f7b685"/>
        <path id="Path_3933" data-name="Path 3933" d="M252.046,193.3c-2.924,2.924-9.358,4.484-13.355,4.874-.682.1-2.047-1.365-2.729-.975-3.607,2.437-9.163,2.047-11.795,2.632-1.072.195-1.267,2.047-1.267,2.047l8.383,2.242s6.239,1.267,11.113-1.072c4.874-2.437,11.795-2.145,11.795-4A7.349,7.349,0,0,0,252.046,193.3Z" transform="translate(-222.9 -179.751)" fill="#213442"/>
      </g>
      <g id="Group_1941" data-name="Group 1941" transform="translate(74.746 45.287)">
        <g id="Group_1940" data-name="Group 1940">
          <path id="Path_3934" data-name="Path 3934" d="M301.257,89.376c-3.7-3.314-.975-8.188,5.264-15.6s7.993-16.864,16.669-22.128,14.037,1.462,7.506,10.138-16.766,23.882-22.615,27C302.329,92.008,301.257,89.376,301.257,89.376Z" transform="translate(-299.579 -48.944)" fill="#f7b685"/>
          <g id="Group_1939" data-name="Group 1939" transform="translate(12.01)">
            <g id="Group_1938" data-name="Group 1938">
              <path id="Path_3935" data-name="Path 3935" d="M331.4,62.353c6.531-8.676.195-17.059-8.481-11.795-5.751,3.509-8.188,9.358-11.015,15.012l10.04,9.163C325.352,70.443,328.666,65.862,331.4,62.353Z" transform="translate(-311.9 -48.922)" fill="#175e94"/>
            </g>
          </g>
        </g>
      </g>
      <g id="Group_1942" data-name="Group 1942" transform="translate(85.099 114.182)">
        <path id="Path_3936" data-name="Path 3936" d="M314.392,119.6H352.7a4.192,4.192,0,0,1,0,8.383H314.392a4.192,4.192,0,1,1,0-8.383Z" transform="translate(-310.2 -119.6)" fill="#404c4f"/>
        <path id="Path_3937" data-name="Path 3937" d="M321.491,119.6H359.8a4.192,4.192,0,0,1,0,8.383H321.491a4.161,4.161,0,0,1-4.192-4.192A4.1,4.1,0,0,1,321.491,119.6Z" transform="translate(-310.379 -119.6)" fill="#262d2e"/>
      </g>
      <g id="Group_1945" data-name="Group 1945" transform="translate(63.197 97.126)">
        <g id="Group_1944" data-name="Group 1944">
          <g id="Group_1943" data-name="Group 1943">
            <path id="Path_3938" data-name="Path 3938" d="M360.615,139.239c7.213-14.427-5.946-22.81-32.655-29.731s-35.58-11.6-39.674-1.852c-3.314,7.8,8.286,15.5,33.922,26.027C347.747,144.211,356.91,146.648,360.615,139.239Z" transform="translate(-287.732 -102.102)" fill="#213442"/>
          </g>
        </g>
      </g>
      <g id="Group_1946" data-name="Group 1946" transform="translate(96.866 41.864)">
        <path id="Path_3939" data-name="Path 3939" d="M332.924,46.676c-3.412.78-7.993,1.072-10.138,6.921-1.95,5.459,2.437,14.817.1,24.272-.1,1.56,1.755,6.239,6.823,7.018,3.509.487,13.257,23.395,13.257,23.395s2.729,8.188,12.282,4.971c9.65-3.217,8.286-5.166,5.751-14.329s-.877-42.111-4.094-48.057C353.785,44.824,339.163,45.214,332.924,46.676Z" transform="translate(-322.272 -45.42)" fill="#175e94"/>
        <path id="Path_3940" data-name="Path 3940" d="M337.435,59.34c-8.383,4.679-11.113-5.849-10.04-11.015a32.139,32.139,0,0,1,6.531-2.534c2.827-.682,10.235-.292,13.744,0-.1,0-2.827,3.9-2.924,3.9C342.114,52.711,340.749,57.488,337.435,59.34Z" transform="translate(-322.396 -45.411)" fill="#f7b685"/>
        <path id="Path_3941" data-name="Path 3941" d="M361.591,100.3c4.679,12.672,16.376,17.351,16.376,28.854,0,10.138-20.081,24.467-27.391,5.751-7.213-18.813-8.676-28.464-8.676-28.464Z" transform="translate(-322.767 -46.795)" fill="#2c4659"/>
      </g>
      <path id="Path_3942" data-name="Path 3942" d="M375.59,133.307c4.679-15.5-18.618-16.766-48.934-14.037s-36.262,4.289-42.793,8.773c-3.119,2.145-1.267,10.235,7.311,13.549,9.26,3.607,24.37,2.437,40.259,3.022C361.846,145.59,371.789,145.785,375.59,133.307Z" transform="translate(-224.402 -5.381)" fill="#2c4659"/>
      <g id="Group_1947" data-name="Group 1947" transform="translate(22.907 117.561)">
        <path id="Path_3943" data-name="Path 3943" d="M254.1,190.944c8.383-8.676,22.907-23.882,30.121-33.045,10.723-13.549,15.109-29.731,10.528-33.143-6.823-4.971-11.892,1.657-17.936,11.6-4.582,7.506-22.128,37.237-30.413,49.227Z" transform="translate(-246.4 -123.066)" fill="#2c4659"/>
      </g>
      <g id="Group_1949" data-name="Group 1949" transform="translate(43.104 97.713)">
        <g id="Group_1948" data-name="Group 1948" transform="translate(0 68.621)">
          <path id="Path_3944" data-name="Path 3944" d="M286.923,176.9l5.361-3.8-1.072,11.307.487,3.119-13.452,6.921-2.047-.585,9.26-10.04Z" transform="translate(-267.348 -173.1)" fill="#f7b685"/>
          <path id="Path_3945" data-name="Path 3945" d="M291.08,185.4c-1.95,3.119-8.578,6.921-12.087,7.993-.585.195-2.145-1.267-2.632-.78-2.729,2.827-5.946,4.192-7.993,5.556-2.242,1.56-.78,3.217-.78,3.217s13.452-2.047,17.254-5.069,8.871-3.119,8.578-4.776A17.422,17.422,0,0,0,291.08,185.4Z" transform="translate(-267.119 -173.41)" fill="#213442"/>
        </g>
        <path id="Path_3946" data-name="Path 3946" d="M292.334,180.1c3.119-11.7,9.26-31.583,11.113-43.183,2.729-17.059-1.267-33.338-6.921-34.117-8.383-1.072-9.553,7.213-10.04,18.813-.292,8.773-.487,42.306-.585,58.195Z" transform="translate(-267.593 -102.704)" fill="#213442"/>
      </g>
      <g id="Group_1953" data-name="Group 1953" transform="translate(120.801 43.502)">
        <g id="Group_1950" data-name="Group 1950" transform="translate(0.663 0.787)">
          <path id="Path_3947" data-name="Path 3947" d="M384.055,85.039c-3.8,3.217-8.286-.195-14.719-7.408-6.434-7.311-16.766-9.845-20.86-19.2-4-9.358,5.166-14.524,12.867-6.726,7.7,7.7,20.763,20.275,23.1,26.514C386.784,84.259,384.055,85.039,384.055,85.039Z" transform="translate(-347.506 -47.899)" fill="#f7b685"/>
        </g>
        <g id="Group_1952" data-name="Group 1952">
          <g id="Group_1951" data-name="Group 1951">
            <path id="Path_3948" data-name="Path 3948" d="M361.52,51.1c-8.188-8.188-17.936-2.827-13.647,7.116,2.827,6.629,8.578,10.04,14.134,13.842l11.113-9.163C369.123,58.6,364.834,54.411,361.52,51.1Z" transform="translate(-346.826 -47.091)" fill="#175e94"/>
          </g>
        </g>
      </g>
      <g id="Group_1958" data-name="Group 1958" transform="translate(107.006 72.805)">
        <g id="Group_1957" data-name="Group 1957">
          <path id="Path_3949" data-name="Path 3949" d="M351.276,102.933c11.21-7.9,18.131-22.42,25.539-25.052,7.408-2.729,9.553,2.827,8.383,6.434-1.267,3.607-16.474,16.961-29.536,21.25-4.874,1.56-4.679.39-5.069-.195C349.814,104.3,351.276,102.933,351.276,102.933Z" transform="translate(-333.12 -77.152)" fill="#f7b685"/>
          <g id="Group_1956" data-name="Group 1956" transform="translate(0 21.882)">
            <path id="Path_3950" data-name="Path 3950" d="M344.555,102h0a.987.987,0,0,1,.195,1.462l-3.9,5.069a1,1,0,0,1-1.462.195h0a.987.987,0,0,1-.195-1.462l3.9-5.069A1.162,1.162,0,0,1,344.555,102Z" transform="translate(-332.832 -99.656)" fill="#f7b685"/>
            <path id="Path_3951" data-name="Path 3951" d="M343.3,101.784h0a1.052,1.052,0,0,1-.487,1.462l-5.654,2.924a1.052,1.052,0,0,1-1.462-.487h0a1.052,1.052,0,0,1,.487-1.462l5.654-2.924A1.03,1.03,0,0,1,343.3,101.784Z" transform="translate(-332.747 -99.639)" fill="#f7b685"/>
            <g id="Group_1955" data-name="Group 1955">
              <g id="Group_1954" data-name="Group 1954">
                <path id="Path_3952" data-name="Path 3952" d="M353.755,101.647l-8.481-1.95a2.7,2.7,0,0,0-.877-.1l-11.307,1.267a.43.43,0,0,0-.39.585h0a1.878,1.878,0,0,0,1.852,1.462h7.408a4.9,4.9,0,0,1,2.632.78l3.022,1.852s3.119,4.289,6.823,1.365c2.242-1.852,1.462-3.607.78-4.484A2.682,2.682,0,0,0,353.755,101.647Z" transform="translate(-332.674 -99.6)" fill="#f7b685"/>
              </g>
            </g>
          </g>
        </g>
      </g>
      <g id="Group_1959" data-name="Group 1959" transform="translate(101.865 12.415)">
        <path id="Path_3953" data-name="Path 3953" d="M340.072,15.2,327.4,21.926,334.029,53.7l9.163-6.823Z" transform="translate(-327.4 -15.2)" fill="#f7b685"/>
      </g>
      <path id="Path_3954" data-name="Path 3954" d="M321.3,21.316c-.292,9.65,3.9,19.788,8.188,20.665,3.607.682,12.77-7.7,14.232-16.961,1.56-9.163-2.242-17.449-8.481-18.423C329.1,5.525,321.592,11.958,321.3,21.316Z" transform="translate(-225.381 -2.565)" fill="#f7b685"/>
      <path id="Path_3955" data-name="Path 3955" d="M334.29,2.792C349.5,5.423,350.374,17.8,350.374,29.89c0,17.936,2.632,21.25,2.632,21.25l-11.99,8.188s-4.387-22.907-1.17-38.212c.487-2.339-2.632.682-12.38-2.145C311.285,14.1,318.888.16,334.29,2.792Z" transform="translate(-225.309 -2.464)" fill="#78684c"/>
      <path id="Path_3956" data-name="Path 3956" d="M343.129,86.075A8.6,8.6,0,0,0,350.439,73.5a8.144,8.144,0,0,1,2.047,5.361,8.575,8.575,0,0,1-8.286,8.773,8.474,8.474,0,0,1-7.7-4.484A8.173,8.173,0,0,0,343.129,86.075Z" transform="translate(-225.765 -4.255)" fill="#004a83"/>
      <g id="Group_1966" data-name="Group 1966" transform="translate(48.739 68.66)">
        <g id="Group_1964" data-name="Group 1964">
          <g id="Group_1960" data-name="Group 1960">
            <path id="Path_3957" data-name="Path 3957" d="M321.932,106.725H284.013L272.9,73.582l.78-.682h36.847Z" transform="translate(-272.9 -72.9)" fill="#496275"/>
          </g>
          <g id="Group_1962" data-name="Group 1962" transform="translate(0 0.682)">
            <g id="Group_1961" data-name="Group 1961">
              <path id="Path_3958" data-name="Path 3958" d="M321.054,106.743H284.013L272.9,73.6h37.042Z" transform="translate(-272.9 -73.6)" fill="#213442"/>
            </g>
          </g>
          <g id="Group_1963" data-name="Group 1963" transform="translate(14.134 33.825)">
            <rect id="Rectangle_255" data-name="Rectangle 255" width="66.87" height="1.95" fill="#213442"/>
          </g>
        </g>
        <g id="Group_1965" data-name="Group 1965" transform="translate(17.612 12.38)" opacity="0.5">
          <path id="Path_3959" data-name="Path 3959" d="M299.772,89.792a3.187,3.187,0,0,1-3.217,4.192,5.851,5.851,0,0,1-5.459-4.192,3.187,3.187,0,0,1,3.217-4.192A5.851,5.851,0,0,1,299.772,89.792Z" transform="translate(-290.968 -85.6)" fill="#fff"/>
        </g>
      </g>
    </g>
  </g>
</svg>
